HIERARCHY
ROOT Hips
{
	OFFSET 0.00000 0.00000 0.00000
	CHANNELS 6 Xposition Yposition Zposition Zrotation Yrotation Xrotation 
	JOINT LHipJoint
	{
		OFFSET 0 0 0
		CHANNELS 3 Zrotation Yrotation Xrotation
		JOINT LeftHip
		{
			OFFSET 1.74857 -1.85566 0.69197
			CHANNELS 3 Zrotation Yrotation Xrotation
			JOINT LeftKnee
			{
				OFFSET 2.40003 -6.59403 0.00000
				CHANNELS 3 Zrotation Yrotation Xrotation
				JOINT LeftAnkle
				{
					OFFSET 2.82169 -7.75254 0.00000
					CHANNELS 3 Zrotation Yrotation Xrotation
					JOINT LeftToe
					{
						OFFSET 0.16466 -0.45240 2.26890
						CHANNELS 3 Zrotation Yrotation Xrotation
						End Site
						{
							OFFSET 0.00000 -0.00000 1.16486
						}
					}
				}
			}
		}
	}
	JOINT RHipJoint
	{
		OFFSET 0 0 0
		CHANNELS 3 Zrotation Yrotation Xrotation
		JOINT RightHip
		{
			OFFSET -1.64169 -1.85566 0.69197
			CHANNELS 3 Zrotation Yrotation Xrotation
			JOINT RightKnee
			{
				OFFSET -2.41814 -6.64379 0.00000
				CHANNELS 3 Zrotation Yrotation Xrotation
				JOINT RightAnkle
				{
					OFFSET -2.80588 -7.70911 0.00000
					CHANNELS 3 Zrotation Yrotation Xrotation
					JOINT RightToe
					{
						OFFSET -0.19098 -0.52472 2.25401
						CHANNELS 3 Zrotation Yrotation Xrotation
						End Site
						{
							OFFSET -0.00000 -0.00000 1.16333
						}
					}
				}
			}
		}
	}
	JOINT lowerback
	{
		OFFSET 0 0 0
		CHANNELS 3 Zrotation Yrotation Xrotation
		JOINT Chest
		{
			OFFSET -0.02828 2.14690 -0.11061
			CHANNELS 3 Zrotation Yrotation Xrotation
			JOINT Chest2
			{
				OFFSET -0.00167 2.15299 0.00759
				CHANNELS 3 Zrotation Yrotation Xrotation
				JOINT lowerneck
				{
					OFFSET 0 0 0
					CHANNELS 3 Zrotation Yrotation Xrotation
					JOINT Neck
					{
						OFFSET -0.09296 1.90118 0.07197
						CHANNELS 3 Zrotation Yrotation Xrotation
						JOINT Head
						{
							OFFSET 0.08490 1.89526 -0.24604
							CHANNELS 3 Zrotation Yrotation Xrotation
							End Site
							{
								OFFSET 0.03186 1.92109 -0.09483
							}
						}
					}
				}
				JOINT LeftCollar
				{
					OFFSET 0 0 0
					CHANNELS 3 Zrotation Yrotation Xrotation
					JOINT LeftShoulder
					{
						OFFSET 3.21569 1.44644 -0.03720
CHANNELS 3 Zrotation Xrotation Yrotation
						JOINT LeftElbow
						{
OFFSET 0 -5.476510 -0.000000
CHANNELS 3 Zrotation Xrotation Yrotation
							JOINT LeftWrist
							{
OFFSET 0 -3.090580 -0.000000
CHANNELS 3 Zrotation Xrotation Yrotation
								JOINT lhand
								{
									OFFSET 0 0 0
CHANNELS 3 Zrotation Xrotation Yrotation
									JOINT LFingers
									{
OFFSET 0 -0.771610 -0.000000
CHANNELS 3 Zrotation Xrotation Yrotation
										End Site
										{
OFFSET 0 -0.622090 -0.000000
										}
									}
								}
								JOINT LThumb
								{
OFFSET 0 0.000000 0.000000
CHANNELS 3 Zrotation Xrotation Yrotation
									End Site
									{
OFFSET 0 -0.631590 0.631590
									}
								}
							}
						}
					}
				}
				JOINT RightCollar
				{
					OFFSET 0 0 0
					CHANNELS 3 Zrotation Yrotation Xrotation
					JOINT RightShoulder
					{
						OFFSET -3.38693 1.28904 -0.07093
CHANNELS 3 Zrotation Xrotation Yrotation
						JOINT RightElbow
						{
OFFSET 0 -5.141820 -0.000000
CHANNELS 3 Zrotation Xrotation Yrotation
							JOINT RightWrist
							{
OFFSET 0 -3.355650 -0.000000
CHANNELS 3 Zrotation Xrotation Yrotation
								JOINT rhand
								{
									OFFSET 0 0 0
CHANNELS 3 Zrotation Xrotation Yrotation
									JOINT RFingers
									{
OFFSET 0 -0.801040 -0.000000
CHANNELS 3 Zrotation Xrotation Yrotation
										End Site
										{
OFFSET 0 -0.645820 -0.000000
										}
									}
								}
								JOINT RThumb
								{
OFFSET 0 0.000000 0.000000
CHANNELS 3 Zrotation Xrotation Yrotation
									End Site
									{
OFFSET 0 -0.655680 0.655680
									}
								}
							}
						}
					}
				}
			}
		}
	}
}
MOTION
Frames: 6
Frame Time: 0.008333333333333333
-0.588300 18.058800 -0.491300 1.217600 -11.649600 1.368600 0.000000 0.000000 0.000000 -17.537000 -0.428300 -3.731500 0.925800 6.129800 17.161600 0.555400 11.463200 -22.523400 0.561600 -4.799900 -13.338600 0.000000 0.000000 0.000000 19.958700 7.954100 -7.614000 -1.457200 -7.629900 21.595500 -0.470300 -7.405100 -17.733800 -0.557000 4.780800 -13.284300 -2.092800 -0.182500 6.323300 0.448100 -0.355800 5.308800 1.650200 -0.255400 1.946600 -2.964600 -1.029100 -2.573400 0.669200 -1.275500 10.275900 0.689100 -0.721000 3.822200 0.000000 0.000000 0.000000 25.555700 33.126300 -71.226400 67.253200 -57.951700 40.436200 16.634100 -44.362000 -39.776400 0.000000 0.000000 0.000000 -7.125000 0.000000 0.000000 -27.371000 69.161100 16.276800 0.000000 0.000000 0.000000 -60.563400 25.891800 35.364500 -92.820900 -59.969900 -62.442700 3.503500 -67.386100 -1.465500 0.000000 0.000000 0.000000 7.125000 0.000000 -0.000000 22.830000 28.129400 10.129400
-0.649871 18.037223 -0.482018 1.198521 -10.044836 0.912791 0.000000 0.000000 0.000000 -17.105966 -0.666290 -4.336854 1.097560 6.657064 18.703279 0.616037 10.249876 -21.889316 0.714934 -5.402749 -15.061170 0.000000 0.000000 0.000000 20.215057 6.844540 -7.354643 -1.487423 -7.704987 21.821500 -0.474086 -7.633362 -17.981887 -0.360007 3.854332 -10.667188 -3.170591 -0.104515 6.200294 -0.226099 -0.285729 5.230157 1.556415 -0.237545 1.936115 -3.082971 -0.793619 -2.427686 2.633217 -1.150123 10.423055 1.371690 -0.583224 3.868282 0.000000 0.000000 0.000000 26.713482 32.226705 -69.848208 66.907843 -57.886005 40.143534 17.132176 -42.841216 -38.462582 0.000000 0.000000 0.000000 -7.125000 0.000000 0.000000 -24.872383 68.185451 14.182797 0.000000 0.000000 0.000000 -72.731008 24.604101 33.721639 -95.115233 -59.900886 -64.428453 5.549504 -68.894227 -1.499091 0.000000 0.000000 0.000000 7.125000 0.000000 0.000000 24.284466 28.024477 10.962350
-0.700512 18.018582 -0.491272 0.804677 -8.263053 0.598266 0.000000 0.000000 0.000000 -16.274523 -0.926642 -5.469710 1.345122 7.342719 20.734698 0.647181 8.891051 -20.931285 0.907403 -6.070099 -16.987983 0.000000 0.000000 0.000000 20.864046 5.812147 -6.871377 -1.451250 -7.614866 21.550359 -0.477520 -8.161547 -18.503201 -0.350520 3.804101 -10.526103 -3.544919 -0.102342 6.382251 -0.832429 -0.302992 5.042783 1.144063 -0.238506 1.641568 -3.180865 -0.530534 -2.127257 4.611122 -0.993866 10.448057 2.064930 -0.431811 3.841930 0.000000 0.000000 0.000000 27.517105 32.205243 -68.605696 67.384896 -57.976439 40.547777 18.350551 -42.352676 -37.415860 0.000000 0.000000 0.000000 -7.125000 0.000000 0.000000 -22.064860 67.628900 12.241668 0.000000 0.000000 0.000000 -84.310126 21.995035 31.354003 -95.860903 -59.869764 -65.073454 8.426650 -68.981571 -3.913577 0.000000 0.000000 0.000000 7.125000 0.000000 0.000000 25.750438 25.707961 13.357888
-0.740189 18.010982 -0.508823 0.216335 -6.771376 0.259188 0.000000 0.000000 0.000000 -15.210220 -0.895806 -6.649035 1.613861 8.010594 22.746155 0.687554 7.117987 -19.836693 0.973977 -6.282436 -17.606282 0.000000 0.000000 0.000000 21.699941 4.930434 -6.104702 -1.357362 -7.374837 20.830752 -0.446429 -8.723010 -18.687912 -0.256966 3.261226 -9.006943 -3.491040 0.084873 6.720183 -1.385355 -0.065089 4.948277 0.534145 -0.103202 1.344189 -3.283002 -0.526871 -1.813511 6.531024 -1.165406 10.209855 2.733875 -0.450790 3.739691 0.000000 0.000000 0.000000 27.792307 32.131547 -67.688032 66.853492 -57.875497 40.097547 17.342950 -42.490953 -36.611417 0.000000 0.000000 0.000000 -7.125000 0.000000 0.000000 -22.256488 66.604583 11.836318 0.000000 0.000000 0.000000 -94.489368 17.970266 27.603498 -94.202762 -59.933108 -63.638862 6.903968 -71.017249 -5.397001 0.000000 0.000000 0.000000 7.125000 0.000000 0.000000 24.409778 24.406434 13.344863
-0.768107 18.009121 -0.532105 0.210439 -5.293403 0.145191 0.000000 0.000000 0.000000 -14.898188 -1.377067 -7.499515 1.773718 8.377912 23.867811 0.664769 6.105624 -18.819194 1.231867 -7.037365 -19.826702 0.000000 0.000000 0.000000 21.868698 4.746312 -5.777351 -1.327194 -7.295624 20.594214 -0.389125 -9.779282 -19.112151 -0.192453 2.824882 -7.791670 -3.730204 0.468739 6.819756 -2.070337 0.435974 5.050272 -0.065464 0.151333 1.383114 -3.207368 -0.897747 -2.028815 7.947907 -1.771277 9.742548 3.187951 -0.694929 3.683853 0.000000 0.000000 0.000000 27.934276 31.604138 -66.824369 66.184725 -57.744517 39.531556 17.198589 -41.511172 -36.383523 0.000000 0.000000 0.000000 -7.125000 0.000000 0.000000 -22.154644 66.356879 11.654586 0.000000 0.000000 0.000000 -102.341323 13.561802 21.225060 -89.168582 -59.996758 -59.279987 7.293358 -71.133029 -6.502414 0.000000 0.000000 0.000000 7.125000 0.000000 0.000000 24.458276 23.381334 14.026828
-0.772194 18.015405 -0.562273 0.421206 -3.758712 0.321082 0.000000 0.000000 0.000000 -15.125384 -2.021428 -7.949353 1.758458 8.343629 23.762896 0.612752 5.954847 -18.146343 1.268311 -7.138312 -20.125710 0.000000 0.000000 0.000000 21.601609 4.093454 -6.252158 -1.344563 -7.341403 20.730811 -0.388391 -10.177351 -19.521440 -0.176927 2.709103 -7.469964 -4.104056 0.882967 6.879699 -2.515251 0.966391 5.012197 -0.346058 0.416732 1.301359 -3.259989 -1.276311 -1.438279 9.055996 -2.315792 8.773823 3.550790 -0.955283 3.299702 0.000000 0.000000 0.000000 27.919189 31.654479 -66.112184 66.549434 -57.816510 39.840083 17.471631 -40.295462 -35.781854 0.000000 0.000000 0.000000 -7.125000 0.000000 0.000000 -21.157789 65.889025 10.883076 0.000000 0.000000 0.000000 -109.452925 9.053906 14.388490 -82.692647 -59.797227 -53.675928 7.041720 -70.568517 -8.141030 0.000000 0.000000 0.000000 7.125000 0.000000 0.000000 23.990886 21.882334 14.624375
